# xmcd
#
# Track frame offsets:
#	150
#	18458
#	33426
#	53473
#	74916
#	99341
#	123719
#	142872
#	159938
#	178456
#	195926
#
# Disc length: 2960 seconds
#
# Revision: 0
# Processed by: cddbd v1.5.2PL0 Copyright (c) Steve Scherf et al.
# Submitted via: dBpowerAMP V4.0
#
DISCID=930b8e0b
DTITLE=Hamilton Loomis - Ain't Just Temporary
DYEAR=2007
DGENRE=Blues
TTITLE0=Best Worst Day
TTITLE1=Legendary
TTITLE2=Where We Started
TTITLE3=Slow Lover
TTITLE4=Good Enough
TTITLE5=You Got To Wait
TTITLE6=My Pen
TTITLE7=Love Again
TTITLE8=Won't Get Away
TTITLE9=That Thang
TTITLE10=Bow Wow
EXTD=
EXTT0=
EXTT1=
EXTT2=
EXTT3=
EXTT4=
EXTT5=
EXTT6=
EXTT7=
EXTT8=
EXTT9=
EXTT10=
PLAYORDER=
